# xmcd
#
# Track frame offsets:
# 150
# 15684
# 36938
# 49924
# 59640
# 81512
# 108176
# 130320
# 141801
#
# Disc length: 2345 seconds
#
#
# Revision: 0
# Processed by: cddbd v1.5.1PL0 Copyright (c) Steve Scherf et al.
# Submitted via: FreeRIP 2.91 
#
DISCID=80092709
DTITLE=Oakley Hall - 
DYEAR=1900
DGENRE=
TTITLE0=Feel This Way
TTITLE1=Color The Shade
TTITLE2=Foolish Heart
TTITLE3=Lookout Below
TTITLE4=5 Sided Die
TTITLE5=End Time Evangelist
TTITLE6=You Wouldn't Believe What I've Been Up To
TTITLE7=Ridin The Dog
TTITLE8=Tuscaloosa
EXTD=
EXTT0=
EXTT1=
EXTT2=
EXTT3=
EXTT4=
EXTT5=
EXTT6=
EXTT7=
EXTT8=
PLAYORDER=
